<svg data-v-423bf9ae="" xmlns="http://www.w3.org/2000/svg" viewBox="0 0 212 90" class="iconLeft"><!----><!----><!----><g data-v-423bf9ae="" id="5322db1d-3d89-4ff0-8850-6265244ef71d" fill="white" transform="matrix(6.249999523162842,0,0,6.249999523162842,104.56250762939453,-1.8124979734420776)"><path d="M0.87 12.29L0.87 2.69L2.74 2.69L4.44 8.99Q4.55 9.42 4.64 10.16Q4.73 10.91 4.76 11.14L4.76 11.14L4.82 11.14Q4.83 10.91 4.92 10.16Q5.01 9.41 5.12 8.99L5.12 8.99L6.83 2.69L8.69 2.69L8.69 12.29L7.46 12.29L7.46 5.32Q7.46 5.11 7.50 4.56Q7.55 4.02 7.56 3.84L7.56 3.84L7.50 3.84Q7.46 4.02 7.35 4.56Q7.24 5.11 7.18 5.32L7.18 5.32L5.26 12.29L4.16 12.29L2.24 5.32Q2.16 4.97 2.07 4.50Q1.99 4.03 1.95 3.84L1.95 3.84L1.89 3.84Q1.90 4.03 1.93 4.50Q1.96 4.97 1.97 5.32L1.97 5.32L1.97 12.29L0.87 12.29ZM10.54 12.29L10.54 2.69L11.77 2.69L11.77 7.77L15.58 2.69L16.95 2.69L14.07 6.57L17.05 12.29L15.65 12.29L13.31 7.60L11.77 9.31L11.77 12.29L10.54 12.29Z"></path></g><!----><g data-v-423bf9ae="" id="7d90594a-622c-49e2-a195-6e5757b7243a" transform="matrix(2.8125,0,0,2.8125,0,0)" stroke="none" fill="white"><path d="M15.965 16.258l.707-.707 10.39 10.39-.707.707z"></path><path d="M4.935 26.357L26.018 5.274l.707.707L5.642 27.065z"></path><path d="M31 1v4.194h-4.194V1H31m1-1h-6.194v6.194H32V0zM31 26.806V31h-4.194v-4.194H31m1-1h-6.194V32H32v-6.194zM5.194 26.806V31H1v-4.194h4.194m1-1H0V32h6.194v-6.194z"></path></g><!----></svg>